<?xml version="1.0" encoding="utf-8"?>
<!-- Generator: Adobe Illustrator 16.0.0, SVG Export Plug-In . SVG Version: 6.00 Build 0)  -->
<!DOCTYPE svg PUBLIC "-//W3C//DTD SVG 1.1//EN" "http://www.w3.org/Graphics/SVG/1.1/DTD/svg11.dtd">
<svg version="1.1" id="Layer_1" xmlns="http://www.w3.org/2000/svg" xmlns:xlink="http://www.w3.org/1999/xlink" x="0px" y="0px"
	 width="64px" height="48px" viewBox="0 0 64 48" enable-background="new 0 0 64 48" xml:space="preserve">
<path fill="#252533" d="M8,40h16l2-11.4c0-3.8-4.477-7.6-10-7.6S6,24.8,6,28.6L8,40z"/>
<circle fill="#252533" cx="16" cy="19.031" r="2"/>
<circle fill="#252533" cx="16" cy="15.031" r="2"/>
<polygon fill="#252533" points="20,8 16,13 12,8 "/>
<path fill="#252533" d="M8,40h16l2-11.4c0-3.8-4.477-7.6-10-7.6S6,24.8,6,28.6L8,40z"/>
<circle fill="#252533" cx="16" cy="19.031" r="2"/>
<circle fill="#252533" cx="16" cy="15.031" r="2"/>
<polygon fill="#252533" points="20,8 16,13 12,8 "/>
<path fill="#252533" d="M56.002,8H40.001l-1.999,11.399c-0.001,3.8,4.476,7.599,9.999,7.599s10.001-3.799,10-7.599L56.002,8z"/>
<circle fill="#252533" cx="48.001" cy="28.967" r="2"/>
<circle fill="#252533" cx="48.001" cy="32.967" r="2"/>
<polygon fill="#252533" points="44.001,40 48.001,35 52.001,40 "/>
</svg>
