<?xml version="1.0" encoding="utf-8"?>
<!-- Generator: Adobe Illustrator 16.0.0, SVG Export Plug-In . SVG Version: 6.00 Build 0)  -->
<!DOCTYPE svg PUBLIC "-//W3C//DTD SVG 1.1//EN" "http://www.w3.org/Graphics/SVG/1.1/DTD/svg11.dtd">
<svg version="1.1" id="Layer_1" xmlns="http://www.w3.org/2000/svg" xmlns:xlink="http://www.w3.org/1999/xlink" x="0px" y="0px"
	 width="104px" height="161.002px" viewBox="1 1 104 161.002" enable-background="new 1 1 104 161.002" xml:space="preserve">
<path fill="none" stroke="#FFFFFF" stroke-width="4" stroke-linecap="round" stroke-linejoin="round" stroke-miterlimit="10" d="
	M103,59.75L93.25,3h-80L3,59.75c0,17.127,18.75,34,41.75,37.211v7.104c-4,2.658-7,7.345-7,12.687s3,10.028,7,12.687v7.644
	c-9,6.591-17.5,22.921-17.5,22.921h52c0,0-8.5-16.33-18.5-22.921v-7.644c5-2.658,7-7.345,7-12.687s-2-10.028-7-12.687v-7.104
	C84.75,93.75,103,76.877,103,59.75z"/>
<g>
	<path fill="#FFFFFF" d="M18.551,26.394L12.062,60.19c0,12.9,14.862,26.783,34.598,28.213c3.286,0.238,9.894,0.188,13.182-0.017
		C79.593,87.16,94.438,73.09,94.438,60.19l-6.487-33.796c0,0-18.435,5.277-34.7,0C38,21.445,18.551,26.394,18.551,26.394z"/>
</g>
</svg>
