<?xml version="1.0" encoding="utf-8"?>
<!-- Generator: Adobe Illustrator 16.0.0, SVG Export Plug-In . SVG Version: 6.00 Build 0)  -->
<!DOCTYPE svg PUBLIC "-//W3C//DTD SVG 1.1//EN" "http://www.w3.org/Graphics/SVG/1.1/DTD/svg11.dtd">
<svg version="1.1" id="Layer_1" xmlns="http://www.w3.org/2000/svg" xmlns:xlink="http://www.w3.org/1999/xlink" x="0px" y="0px"
	 width="106px" height="163px" viewBox="0 0 106 163" enable-background="new 0 0 106 163" xml:space="preserve">
<path fill="#FFFFFF" stroke="#FFFFFF" stroke-width="6" stroke-linecap="round" stroke-linejoin="round" stroke-miterlimit="10" d="
	M103,59.75L93.25,3h-80L3,59.75c0,17.127,18.75,34,41.75,37.211v7.104c-4,2.658-7,7.345-7,12.687s3,10.028,7,12.687v7.644
	c-9,6.591-17.5,22.921-17.5,22.921h52c0,0-8.5-16.33-18.5-22.921v-7.644c5-2.658,7-7.345,7-12.687s-2-10.028-7-12.687v-7.104
	C84.75,93.75,103,76.877,103,59.75z"/>
<g>
	<path fill="#FFFFFF" d="M20.183,27.804L14,60.011c0,12.293,14.163,25.522,32.97,26.886c3.131,0.228,9.428,0.18,12.561-0.016
		c18.822-1.169,32.97-14.577,32.97-26.87l-6.183-32.207c0,0-17.567,5.029-33.067,0C38.717,23.089,20.183,27.804,20.183,27.804z"/>
</g>
</svg>
